<?xml version="1.0" encoding="UTF-8"?>
<svg width="448" height="512" viewBox="0 0 448 512" xmlns="http://www.w3.org/2000/svg">
    <path id="Path" fill="#0092a3" stroke="none" d="M 288 0 L 160 0 L 128 0 C 110.300003 0 96 14.299988 96 32 C 96 49.700012 110.300003 64 128 64 L 128 196.799988 C 128 208.600006 124.699997 220.299988 118.5 230.299988 L 10.3 406.200012 C 3.6 417.200012 0 429.700012 0 442.600006 C 0 480.899994 31.1 512 69.400002 512 L 378.600006 512 C 416.899994 512 448 480.899994 448 442.600006 C 448 429.799988 444.399994 417.200012 437.700012 406.200012 L 329.5 230.399994 C 323.299988 220.299988 320 208.700012 320 196.899994 L 320 64 C 337.700012 64 352 49.700012 352 32 C 352 14.299988 337.700012 0 320 0 L 288 0 Z M 192 196.799988 L 192 64 L 256 64 L 256 196.799988 C 256 220.5 262.600006 243.700012 275 263.899994 L 309.5 320 L 138.5 320 L 173 263.899994 C 185.399994 243.700012 192 220.5 192 196.799988 Z"/>
    <path id="path1" fill="#ff00fe" fill-rule="evenodd" stroke="none" d="M 138 321 L 61 454 L 380 454 L 309 321 L 138 321 Z"/>
</svg>
